<svg width="246" height="230" viewBox="0 0 246 230" fill="none" xmlns="http://www.w3.org/2000/svg">
<path d="M83.0541 218.653H78.5095L70.9085 207.145V218.653H66.3638V199.996H70.9085L78.5095 211.557V199.996H83.0541V218.653ZM88.634 202.282C87.8367 202.282 87.1811 202.051 86.6673 201.591C86.1712 201.112 85.9231 200.528 85.9231 199.837C85.9231 199.128 86.1712 198.543 86.6673 198.083C87.1811 197.604 87.8367 197.365 88.634 197.365C89.4136 197.365 90.0514 197.604 90.5475 198.083C91.0613 198.543 91.3182 199.128 91.3182 199.837C91.3182 200.528 91.0613 201.112 90.5475 201.591C90.0514 202.051 89.4136 202.282 88.634 202.282ZM90.893 203.823V218.653H86.3484V203.823H90.893ZM103.249 218.653L98.7311 212.434V218.653H94.1864V198.986H98.7311V209.856L103.223 203.823H108.83L102.664 211.265L108.883 218.653H103.249ZM112.901 202.282C112.104 202.282 111.448 202.051 110.934 201.591C110.438 201.112 110.19 200.528 110.19 199.837C110.19 199.128 110.438 198.543 110.934 198.083C111.448 197.604 112.104 197.365 112.901 197.365C113.68 197.365 114.318 197.604 114.814 198.083C115.328 198.543 115.585 199.128 115.585 199.837C115.585 200.528 115.328 201.112 114.814 201.591C114.318 202.051 113.68 202.282 112.901 202.282ZM115.16 203.823V218.653H110.615V203.823H115.16ZM124.725 218.839C123.503 218.839 122.404 218.626 121.43 218.201C120.473 217.758 119.72 217.156 119.171 216.394C118.622 215.614 118.338 214.72 118.32 213.71H120.898C120.987 214.578 121.341 215.313 121.961 215.916C122.599 216.5 123.521 216.793 124.725 216.793C125.877 216.793 126.781 216.509 127.436 215.942C128.11 215.357 128.446 214.613 128.446 213.71C128.446 213.001 128.251 212.425 127.862 211.982C127.472 211.539 126.985 211.203 126.4 210.972C125.815 210.742 125.027 210.494 124.034 210.228C122.812 209.909 121.829 209.59 121.084 209.271C120.358 208.952 119.729 208.456 119.198 207.783C118.684 207.092 118.427 206.171 118.427 205.019C118.427 204.009 118.684 203.114 119.198 202.335C119.711 201.555 120.429 200.953 121.35 200.528C122.289 200.102 123.361 199.89 124.566 199.89C126.302 199.89 127.72 200.324 128.818 201.192C129.935 202.06 130.564 203.212 130.705 204.647H128.048C127.959 203.938 127.587 203.318 126.931 202.787C126.276 202.237 125.408 201.963 124.327 201.963C123.317 201.963 122.493 202.229 121.855 202.76C121.217 203.274 120.898 204 120.898 204.939C120.898 205.613 121.084 206.162 121.457 206.587C121.846 207.012 122.316 207.34 122.865 207.57C123.432 207.783 124.221 208.031 125.23 208.315C126.453 208.651 127.436 208.988 128.18 209.325C128.925 209.643 129.562 210.148 130.094 210.839C130.626 211.513 130.891 212.434 130.891 213.603C130.891 214.507 130.652 215.357 130.174 216.155C129.695 216.952 128.987 217.599 128.048 218.095C127.109 218.591 126.001 218.839 124.725 218.839ZM145.4 214.534H137.321L135.832 218.653H133.281L139.978 200.235H142.769L149.44 218.653H146.888L145.4 214.534ZM144.709 212.567L141.36 203.212L138.012 212.567H144.709ZM171.148 200.262V218.653H168.73V204.939L162.617 218.653H160.916L154.777 204.913V218.653H152.359V200.262H154.963L161.767 215.464L168.57 200.262H171.148ZM178.386 200.129L178.094 213.417H176.074L175.781 200.129H178.386ZM177.19 218.812C176.729 218.812 176.34 218.653 176.021 218.334C175.702 218.015 175.542 217.625 175.542 217.165C175.542 216.704 175.702 216.314 176.021 215.995C176.34 215.676 176.729 215.517 177.19 215.517C177.633 215.517 178.005 215.676 178.306 215.995C178.625 216.314 178.785 216.704 178.785 217.165C178.785 217.625 178.625 218.015 178.306 218.334C178.005 218.653 177.633 218.812 177.19 218.812Z" fill="white"/>
<path d="M148.83 122.251C147.972 123.107 146.715 123.749 145.059 124.177C143.465 124.666 141.533 124.911 139.264 124.911C136.996 124.911 134.85 124.575 132.826 123.902C130.802 123.23 129.147 121.609 127.859 119.041L118.753 100.514C117.834 98.6186 117.006 96.8454 116.27 95.1945C115.534 93.4824 114.737 91.5258 113.879 89.3245L113.327 89.4163C113.572 92.7181 113.695 96.0811 113.695 99.5052C113.756 102.929 113.787 106.292 113.787 109.594V123.81C113.112 123.994 112.07 124.177 110.659 124.361C109.31 124.544 107.961 124.636 106.612 124.636C105.263 124.636 104.068 124.544 103.025 124.361C101.983 124.177 101.124 123.81 100.45 123.26C99.7752 122.71 99.254 121.976 98.8861 121.059C98.5182 120.081 98.3342 118.827 98.3342 117.298V71.4396C99.1927 70.2167 100.511 69.2995 102.289 68.6881C104.068 68.0766 105.968 67.7709 107.992 67.7709C110.261 67.7709 112.407 68.1377 114.43 68.8715C116.515 69.5441 118.171 71.1339 119.397 73.6408L128.595 92.1678C129.515 94.0633 130.343 95.8671 131.078 97.5791C131.814 99.23 132.611 101.156 133.47 103.357L133.93 103.266C133.684 99.9638 133.531 96.662 133.47 93.3601C133.409 90.0583 133.378 86.7564 133.378 83.4546V68.5963C134.052 68.4129 135.064 68.2295 136.413 68.046C137.823 67.8626 139.203 67.7709 140.552 67.7709C143.25 67.7709 145.304 68.26 146.715 69.2384C148.125 70.1555 148.83 72.1122 148.83 75.1083V122.251Z" fill="white"/>
<path d="M159.303 171.42C154.201 167.584 149.099 163.728 143.978 159.892C140.644 157.401 137.309 154.951 133.754 152.32C142.471 146.575 151.028 140.931 159.905 135.066C159.905 138.24 159.905 141.052 159.905 144.105C160.809 144.145 161.532 144.225 162.235 144.205C168.642 144.125 175.069 143.904 181.477 144.024C184.751 144.105 187.301 142.9 189.571 140.811C192.584 138.059 194.371 134.604 194.411 130.567C194.432 128.559 193.95 126.309 192.965 124.582C183.786 108.393 174.447 92.3052 165.147 76.1969C164.987 75.9157 164.846 75.6144 164.545 75.0721C169.325 72.3004 174.065 69.5487 178.986 66.7167C179.528 67.5603 180.031 68.2633 180.452 69.0064C189.43 84.5925 198.248 100.279 207.467 115.745C211.705 122.855 212.247 130.146 210.239 137.758C207.266 149.026 199.935 156.397 188.968 160.193C187.844 160.595 186.578 160.755 185.373 160.775C177.46 160.916 169.546 160.996 161.633 161.097C161.09 161.097 160.568 161.157 159.704 161.197C159.704 164.632 159.704 168.026 159.704 171.4C159.584 171.42 159.443 171.42 159.303 171.42Z" fill="white"/>
<path d="M165.067 60.2492C155.647 55.5091 146.508 50.9096 136.988 46.1294C139.84 44.5025 142.331 43.0563 144.942 41.57C140.824 34.6206 136.908 27.7515 132.71 21.0631C131.123 18.5324 128.151 17.6487 125.319 17.1465C121.884 16.544 118.449 16.8854 115.437 18.7734C113.95 19.7174 112.444 21.023 111.58 22.5293C102.261 38.4769 93.082 54.5049 83.8629 70.5127C83.5616 71.0349 83.2001 71.517 82.7984 72.1396C77.9779 69.3679 73.278 66.6564 68.3973 63.8445C68.6785 63.2821 68.8995 62.7398 69.1807 62.2376C78.701 45.7076 88.2615 29.1775 97.7618 12.6274C100.674 7.54583 105.274 4.49289 110.456 2.50447C122.788 -2.23562 134.136 -0.247198 144.179 8.46975C145.323 9.47401 146.267 10.7996 147.051 12.1252C151.228 19.0747 155.326 26.0643 159.604 33.2749C162.556 31.6279 165.429 30.0412 168.642 28.2335C167.417 39.0594 166.252 49.5238 165.067 60.2492Z" fill="white"/>
<path d="M49.0954 97.3467C46.1027 95.5591 43.3109 93.9121 40.1776 92.0442C50.1198 87.6858 59.7606 83.4679 69.7028 79.1295C70.3254 89.634 70.928 99.8975 71.5506 110.502C68.7789 108.896 66.2682 107.45 63.617 105.923C61.3273 110 59.0376 114.037 56.788 118.054C55.5628 120.244 54.4782 122.554 53.0723 124.642C50.8428 127.916 51.0638 131.351 52.1685 134.826C53.474 138.923 56.1855 141.916 60.082 143.743C61.0863 144.205 62.3114 144.406 63.4161 144.406C81.8342 144.446 100.252 144.426 118.69 144.426C119.434 144.426 120.157 144.426 121.04 144.426C121.04 150.03 121.04 155.453 121.04 161.157C120.297 161.197 119.514 161.258 118.731 161.258C100.513 161.258 82.2962 161.097 64.0789 161.358C57.6115 161.438 52.2086 159.289 47.2476 155.594C36.9841 147.981 32.3645 134.665 35.538 122.292C35.779 121.389 36.1405 120.485 36.5824 119.661C40.6998 112.27 44.8374 104.919 49.0954 97.3467Z" fill="white"/>
</svg>
