<svg width="261" height="244" viewBox="0 0 261 244" fill="none" xmlns="http://www.w3.org/2000/svg">
<path d="M90.6363 230.352H86.0917L78.4907 218.844V230.352H73.9461V211.695H78.4907L86.0917 223.256V211.695H90.6363V230.352ZM96.2162 213.981C95.4189 213.981 94.7634 213.75 94.2495 213.29C93.7534 212.811 93.5054 212.227 93.5054 211.536C93.5054 210.827 93.7534 210.242 94.2495 209.782C94.7634 209.303 95.4189 209.064 96.2162 209.064C96.9958 209.064 97.6337 209.303 98.1298 209.782C98.6436 210.242 98.9005 210.827 98.9005 211.536C98.9005 212.227 98.6436 212.811 98.1298 213.29C97.6337 213.75 96.9958 213.981 96.2162 213.981ZM98.4753 215.522V230.352H93.9306V215.522H98.4753ZM110.831 230.352L106.313 224.133V230.352H101.769V210.685H106.313V221.555L110.805 215.522H116.413L110.247 222.964L116.466 230.352H110.831ZM120.483 213.981C119.686 213.981 119.03 213.75 118.516 213.29C118.02 212.811 117.772 212.227 117.772 211.536C117.772 210.827 118.02 210.242 118.516 209.782C119.03 209.303 119.686 209.064 120.483 209.064C121.263 209.064 121.901 209.303 122.397 209.782C122.91 210.242 123.167 210.827 123.167 211.536C123.167 212.227 122.91 212.811 122.397 213.29C121.901 213.75 121.263 213.981 120.483 213.981ZM122.742 215.522V230.352H118.198V215.522H122.742ZM132.308 230.538C131.085 230.538 129.987 230.325 129.012 229.9C128.055 229.457 127.302 228.855 126.753 228.093C126.204 227.313 125.92 226.419 125.903 225.409H128.481C128.569 226.277 128.924 227.012 129.544 227.615C130.182 228.199 131.103 228.492 132.308 228.492C133.459 228.492 134.363 228.208 135.019 227.641C135.692 227.057 136.028 226.312 136.028 225.409C136.028 224.7 135.834 224.124 135.444 223.681C135.054 223.238 134.567 222.902 133.982 222.671C133.397 222.441 132.609 222.193 131.617 221.927C130.394 221.608 129.411 221.289 128.667 220.97C127.94 220.652 127.311 220.155 126.78 219.482C126.266 218.791 126.009 217.87 126.009 216.718C126.009 215.708 126.266 214.813 126.78 214.034C127.294 213.254 128.011 212.652 128.932 212.227C129.872 211.801 130.943 211.589 132.148 211.589C133.885 211.589 135.302 212.023 136.401 212.891C137.517 213.759 138.146 214.911 138.288 216.346H135.63C135.541 215.637 135.169 215.017 134.514 214.486C133.858 213.936 132.99 213.662 131.909 213.662C130.899 213.662 130.075 213.928 129.437 214.459C128.8 214.973 128.481 215.699 128.481 216.638C128.481 217.312 128.667 217.861 129.039 218.286C129.429 218.711 129.898 219.039 130.447 219.27C131.014 219.482 131.803 219.73 132.813 220.014C134.035 220.35 135.019 220.687 135.763 221.024C136.507 221.343 137.145 221.847 137.676 222.538C138.208 223.212 138.474 224.133 138.474 225.302C138.474 226.206 138.234 227.057 137.756 227.854C137.278 228.651 136.569 229.298 135.63 229.794C134.691 230.29 133.583 230.538 132.308 230.538ZM152.982 226.233H144.903L143.415 230.352H140.863L147.561 211.934H150.351L157.022 230.352H154.471L152.982 226.233ZM152.291 224.266L148.943 214.911L145.594 224.266H152.291ZM178.731 211.961V230.352H176.312V216.638L170.199 230.352H168.498L162.359 216.612V230.352H159.941V211.961H162.545L169.349 227.163L176.153 211.961H178.731ZM185.968 211.828L185.676 225.116H183.656L183.364 211.828H185.968ZM184.772 230.512C184.312 230.512 183.922 230.352 183.603 230.033C183.284 229.714 183.124 229.324 183.124 228.864C183.124 228.403 183.284 228.013 183.603 227.694C183.922 227.375 184.312 227.216 184.772 227.216C185.215 227.216 185.587 227.375 185.888 227.694C186.207 228.013 186.367 228.403 186.367 228.864C186.367 229.324 186.207 229.714 185.888 230.033C185.587 230.352 185.215 230.512 184.772 230.512Z" fill="#047045"/>
<path d="M158.011 129.792C157.099 130.701 155.765 131.383 154.007 131.837C152.314 132.357 150.264 132.616 147.855 132.616C145.446 132.616 143.168 132.259 141.019 131.545C138.871 130.831 137.113 129.111 135.746 126.384L126.079 106.714C125.102 104.702 124.223 102.819 123.442 101.067C122.661 99.249 121.815 97.1716 120.903 94.8346L120.317 94.932C120.578 98.4375 120.708 102.008 120.708 105.643C120.773 109.279 120.806 112.849 120.806 116.355V131.448C120.089 131.643 118.983 131.837 117.485 132.032C116.053 132.227 114.621 132.324 113.189 132.324C111.756 132.324 110.487 132.227 109.38 132.032C108.274 131.837 107.362 131.448 106.646 130.864C105.93 130.279 105.377 129.5 104.986 128.527C104.595 127.488 104.4 126.157 104.4 124.534V75.8464C105.311 74.5481 106.711 73.5743 108.599 72.9252C110.487 72.276 112.505 71.9514 114.653 71.9514C117.062 71.9514 119.341 72.3409 121.489 73.1199C123.703 73.834 125.46 75.5218 126.762 78.1834L136.527 97.8533C137.504 99.8657 138.383 101.781 139.164 103.598C139.945 105.351 140.792 107.396 141.703 109.733L142.191 109.636C141.931 106.13 141.768 102.625 141.703 99.1191C141.638 95.6136 141.605 92.1081 141.605 88.6026V72.8278C142.321 72.633 143.396 72.4383 144.828 72.2435C146.325 72.0488 147.79 71.9514 149.222 71.9514C152.087 71.9514 154.268 72.4708 155.765 73.5094C157.262 74.4832 158.011 76.5605 158.011 79.7414V129.792Z" fill="#047045"/>
<path d="M169.129 181.995C163.713 177.922 158.297 173.827 152.859 169.754C149.319 167.11 145.779 164.509 142.005 161.715C151.26 155.617 160.344 149.625 169.769 143.398C169.769 146.767 169.769 149.753 169.769 152.994C170.729 153.036 171.496 153.122 172.243 153.1C179.045 153.015 185.869 152.781 192.671 152.908C196.147 152.994 198.855 151.714 201.265 149.497C204.463 146.575 206.361 142.907 206.404 138.621C206.425 136.489 205.913 134.101 204.869 132.267C195.123 115.08 185.208 97.9989 175.335 80.897C175.164 80.5985 175.015 80.2786 174.695 79.7028C179.77 76.7601 184.803 73.8387 190.027 70.832C190.603 71.7276 191.136 72.474 191.584 73.263C201.116 89.8105 210.477 106.465 220.265 122.884C224.764 130.433 225.34 138.174 223.207 146.255C220.051 158.218 212.268 166.044 200.625 170.074C199.431 170.501 198.087 170.671 196.808 170.693C188.406 170.842 180.005 170.927 171.603 171.034C171.027 171.034 170.473 171.098 169.556 171.141C169.556 174.787 169.556 178.391 169.556 181.973C169.428 181.995 169.279 181.995 169.129 181.995Z" fill="#047045"/>
<path d="M175.249 63.9657C165.248 58.9332 155.546 54.05 145.438 48.9749C148.466 47.2476 151.11 45.7123 153.883 44.1343C149.511 36.7562 145.353 29.4633 140.896 22.3624C139.212 19.6756 136.056 18.7373 133.049 18.2042C129.403 17.5645 125.756 17.927 122.557 19.9315C120.979 20.9337 119.38 22.3198 118.463 23.9191C108.569 40.8504 98.8238 57.867 89.036 74.8623C88.7161 75.4168 88.3323 75.9286 87.9058 76.5896C82.788 73.6469 77.7982 70.7681 72.6165 67.7827C72.915 67.1857 73.1496 66.6099 73.4481 66.0768C83.5557 48.5271 93.706 30.9774 103.792 13.4063C106.884 8.0113 111.767 4.77004 117.269 2.65896C130.362 -2.37353 142.41 -0.262447 153.072 8.99221C154.288 10.0584 155.29 11.4658 156.122 12.8732C160.557 20.2513 164.907 27.6721 169.449 35.3275C172.584 33.5789 175.633 31.8943 179.045 29.9751C177.744 41.4688 176.507 52.5787 175.249 63.9657Z" fill="#047045"/>
<path d="M52.1239 103.352C48.9466 101.454 45.9826 99.7053 42.656 97.7221C53.2114 93.0948 63.447 88.6167 74.0024 84.0107C74.6635 95.1632 75.3032 106.06 75.9642 117.319C73.0215 115.613 70.356 114.078 67.5412 112.457C65.1103 116.786 62.6793 121.072 60.291 125.337C58.9903 127.661 57.8388 130.113 56.3461 132.331C53.9791 135.807 54.2137 139.453 55.3865 143.142C56.7726 147.493 59.6513 150.67 63.7882 152.61C64.8544 153.101 66.1552 153.314 67.328 153.314C86.8822 153.357 106.436 153.335 126.012 153.335C126.801 153.335 127.569 153.335 128.507 153.335C128.507 159.285 128.507 165.042 128.507 171.098C127.718 171.141 126.886 171.205 126.055 171.205C106.714 171.205 87.3726 171.034 68.0317 171.312C61.1653 171.397 55.4291 169.115 50.1621 165.192C39.2655 157.11 34.3609 142.972 37.7301 129.836C37.986 128.877 38.3699 127.917 38.839 127.043C43.2104 119.195 47.6032 111.391 52.1239 103.352Z" fill="#047045"/>
</svg>
