<svg width="175" height="40" viewBox="0 0 175 40" fill="none" xmlns="http://www.w3.org/2000/svg">
<path d="M74.7882 29H70.2436L62.6426 17.4922V29H58.098V10.3431H62.6426L70.2436 21.904V10.3431H74.7882V29ZM80.3681 12.6287C79.5708 12.6287 78.9152 12.3984 78.4014 11.9377C77.9053 11.4593 77.6572 10.8746 77.6572 10.1836C77.6572 9.4749 77.9053 8.89021 78.4014 8.42955C78.9152 7.95117 79.5708 7.71197 80.3681 7.71197C81.1477 7.71197 81.7855 7.95117 82.2816 8.42955C82.7954 8.89021 83.0523 9.4749 83.0523 10.1836C83.0523 10.8746 82.7954 11.4593 82.2816 11.9377C81.7855 12.3984 81.1477 12.6287 80.3681 12.6287ZM82.6271 14.1701V29H78.0825V14.1701H82.6271ZM94.9832 29L90.4652 22.781V29H85.9206V9.33316H90.4652V20.2031L94.9567 14.1701H100.564L94.3986 21.6116L100.618 29H94.9832ZM104.635 12.6287C103.838 12.6287 103.182 12.3984 102.668 11.9377C102.172 11.4593 101.924 10.8746 101.924 10.1836C101.924 9.4749 102.172 8.89021 102.668 8.42955C103.182 7.95117 103.838 7.71197 104.635 7.71197C105.415 7.71197 106.052 7.95117 106.549 8.42955C107.062 8.89021 107.319 9.4749 107.319 10.1836C107.319 10.8746 107.062 11.4593 106.549 11.9377C106.052 12.3984 105.415 12.6287 104.635 12.6287ZM106.894 14.1701V29H102.349V14.1701H106.894ZM116.46 29.186C115.237 29.186 114.139 28.9734 113.164 28.5482C112.207 28.1052 111.454 27.5028 110.905 26.741C110.356 25.9614 110.072 25.0666 110.055 24.0567H112.633C112.721 24.9249 113.075 25.6602 113.696 26.2626C114.333 26.8473 115.255 27.1396 116.46 27.1396C117.611 27.1396 118.515 26.8561 119.17 26.2892C119.844 25.7045 120.18 24.9603 120.18 24.0567C120.18 23.348 119.985 22.7722 119.596 22.3292C119.206 21.8863 118.719 21.5496 118.134 21.3193C117.549 21.089 116.761 20.8409 115.769 20.5752C114.546 20.2562 113.563 19.9373 112.819 19.6184C112.092 19.2995 111.463 18.8034 110.932 18.1301C110.418 17.4391 110.161 16.5178 110.161 15.3661C110.161 14.3562 110.418 13.4614 110.932 12.6818C111.445 11.9023 112.163 11.2998 113.084 10.8746C114.023 10.4494 115.095 10.2368 116.3 10.2368C118.036 10.2368 119.454 10.6709 120.552 11.539C121.669 12.4072 122.298 13.5589 122.439 14.994H119.782C119.693 14.2853 119.321 13.6652 118.665 13.1336C118.01 12.5844 117.142 12.3098 116.061 12.3098C115.051 12.3098 114.227 12.5755 113.589 13.1071C112.951 13.6209 112.633 14.3473 112.633 15.2864C112.633 15.9596 112.819 16.5089 113.191 16.9341C113.58 17.3594 114.05 17.6871 114.599 17.9175C115.166 18.1301 115.955 18.3781 116.965 18.6616C118.187 18.9983 119.17 19.3349 119.915 19.6715C120.659 19.9905 121.297 20.4954 121.828 21.1864C122.36 21.8597 122.625 22.781 122.625 23.9504C122.625 24.854 122.386 25.7045 121.908 26.5018C121.429 27.2991 120.721 27.9458 119.782 28.4419C118.843 28.938 117.735 29.186 116.46 29.186ZM137.134 24.8806H129.055L127.566 29H125.015L131.712 10.5823H134.503L141.174 29H138.622L137.134 24.8806ZM136.443 22.9139L133.094 13.5589L129.746 22.9139H136.443ZM162.882 10.6088V29H160.464V15.2864L154.351 29H152.65L146.511 15.2598V29H144.093V10.6088H146.697L153.501 25.8108L160.304 10.6088H162.882ZM170.12 10.476L169.828 23.7644H167.808L167.516 10.476H170.12ZM168.924 29.1595C168.463 29.1595 168.074 29 167.755 28.6811C167.436 28.3622 167.276 27.9724 167.276 27.5117C167.276 27.051 167.436 26.6612 167.755 26.3423C168.074 26.0234 168.463 25.8639 168.924 25.8639C169.367 25.8639 169.739 26.0234 170.04 26.3423C170.359 26.6612 170.519 27.051 170.519 27.5117C170.519 27.9724 170.359 28.3622 170.04 28.6811C169.739 29 169.367 29.1595 168.924 29.1595Z" fill="#047045"/>
<path d="M26.6667 28.5266C26.4664 28.7264 26.1731 28.8762 25.7868 28.9761C25.4148 29.0902 24.964 29.1473 24.4346 29.1473C23.9052 29.1473 23.4044 29.0688 22.9322 28.9119C22.4601 28.7549 22.0737 28.3768 21.7733 27.7776L19.6485 23.4544C19.4339 23.0121 19.2407 22.5983 19.069 22.2131C18.8973 21.8136 18.7113 21.357 18.511 20.8434L18.3822 20.8648C18.4394 21.6353 18.468 22.42 18.468 23.219C18.4823 24.018 18.4895 24.8027 18.4895 25.5732V28.8905C18.3321 28.9333 18.0889 28.9761 17.7598 29.0189C17.445 29.0617 17.1302 29.0831 16.8154 29.0831C16.5006 29.0831 16.2216 29.0617 15.9784 29.0189C15.7351 28.9761 15.5348 28.8905 15.3774 28.7621C15.22 28.6337 15.0984 28.4624 15.0126 28.2484C14.9267 28.0201 14.8838 27.7276 14.8838 27.3709V16.67C15.0841 16.3847 15.3917 16.1707 15.8067 16.028C16.2216 15.8853 16.6652 15.814 17.1374 15.814C17.6668 15.814 18.1676 15.8996 18.6397 16.0708C19.1262 16.2277 19.5125 16.5987 19.7987 17.1837L21.945 21.5068C22.1596 21.9492 22.3528 22.3701 22.5245 22.7696C22.6962 23.1548 22.8822 23.6042 23.0825 24.1179L23.1898 24.0965C23.1326 23.326 23.0968 22.5555 23.0825 21.7851C23.0682 21.0146 23.061 20.2441 23.061 19.4737V16.0066C23.2184 15.9638 23.4545 15.921 23.7693 15.8782C24.0984 15.8354 24.4203 15.814 24.7351 15.814C25.3647 15.814 25.844 15.9281 26.1731 16.1564C26.5022 16.3704 26.6667 16.827 26.6667 17.5261V28.5266Z" fill="#047045"/>
<path d="M29.1104 40C27.9199 39.1049 26.7295 38.205 25.5344 37.3098C24.7564 36.7287 23.9784 36.1569 23.1488 35.5429C25.1829 34.2025 27.1794 32.8855 29.251 31.517C29.251 32.2575 29.251 32.9137 29.251 33.6261C29.4619 33.6354 29.6306 33.6542 29.7946 33.6495C31.2897 33.6307 32.7895 33.5792 34.2845 33.6073C35.0485 33.6261 35.6437 33.3449 36.1733 32.8574C36.8763 32.2153 37.2934 31.4092 37.3028 30.4672C37.3075 29.9985 37.195 29.4736 36.9654 29.0705C34.8235 25.293 32.6442 21.5389 30.4742 17.7801C30.4367 17.7145 30.4039 17.6442 30.3336 17.5177C31.449 16.8709 32.5551 16.2288 33.7034 15.568C33.8299 15.7648 33.9471 15.9289 34.0455 16.1023C36.1405 19.7392 38.198 23.3996 40.3492 27.0084C41.3381 28.6675 41.4646 30.3688 40.996 32.145C40.3023 34.7743 38.5917 36.4943 36.0327 37.3801C35.7702 37.4739 35.475 37.5114 35.1938 37.5161C33.3472 37.5489 31.5006 37.5676 29.654 37.591C29.5275 37.591 29.4056 37.6051 29.2041 37.6145C29.2041 38.4159 29.2041 39.208 29.2041 39.9954C29.176 40 29.1432 40 29.1104 40Z" fill="#047045"/>
<path d="M30.4554 14.0588C28.2573 12.9527 26.1249 11.8795 23.9033 10.764C24.5689 10.3844 25.15 10.047 25.7593 9.70014C24.7985 8.07852 23.8846 6.47565 22.9051 4.91496C22.5348 4.32443 21.8412 4.11822 21.1803 4.00105C20.3789 3.86044 19.5775 3.94012 18.8744 4.38067C18.5276 4.60095 18.1761 4.90559 17.9746 5.2571C15.7999 8.97838 13.6581 12.7184 11.5069 16.4538C11.4366 16.5756 11.3522 16.6881 11.2585 16.8334C10.1337 16.1866 9.03695 15.5539 7.89807 14.8978C7.96369 14.7665 8.01524 14.64 8.08085 14.5228C10.3024 10.6656 12.5333 6.80841 14.7501 2.94653C15.4297 1.76078 16.503 1.04839 17.7121 0.584403C20.5898 -0.521671 23.2378 -0.0576823 25.5812 1.97637C25.8483 2.21071 26.0686 2.52003 26.2514 2.82936C27.2262 4.45097 28.1823 6.08197 29.1806 7.76451C29.8696 7.3802 30.5398 7.00994 31.2897 6.58814C31.0038 9.1143 30.7319 11.5561 30.4554 14.0588Z" fill="#047045"/>
<path d="M3.39414 22.7154C2.69581 22.2982 2.04436 21.9139 1.31322 21.4781C3.63317 20.461 5.88281 19.4768 8.20275 18.4645C8.34804 20.9157 8.48864 23.3106 8.63393 25.7852C7.98716 25.4102 7.40132 25.0728 6.78266 24.7166C6.24837 25.668 5.71408 26.6101 5.18917 27.5474C4.90328 28.0583 4.65019 28.5972 4.32212 29.0847C3.80189 29.8486 3.85344 30.65 4.11121 31.4608C4.41585 32.4169 5.04857 33.1153 5.9578 33.5418C6.19213 33.6496 6.47803 33.6964 6.7358 33.6964C11.0336 33.7058 15.3313 33.7011 19.6337 33.7011C19.8072 33.7011 19.9759 33.7011 20.1821 33.7011C20.1821 35.0087 20.1821 36.2741 20.1821 37.6052C20.0087 37.6146 19.8259 37.6286 19.6431 37.6286C15.3922 37.6286 11.1413 37.5911 6.89046 37.6521C5.38133 37.6708 4.12059 37.1693 2.96296 36.307C0.568029 34.5307 -0.509925 31.4234 0.230582 28.5363C0.286823 28.3254 0.371184 28.1145 0.474293 27.9223C1.43508 26.1976 2.40055 24.4823 3.39414 22.7154Z" fill="#047045"/>
</svg>
